<svg width="131" height="65" viewBox="0 0 131 65" fill="none" xmlns="http://www.w3.org/2000/svg">
<g clip-path="url(#clip0_1_2)">
<g clip-path="url(#clip1_1_2)">
<path d="M31.1066 25.3784C31.5534 24.0378 33.4466 24.0378 33.8934 25.3784L36.5137 33.2475C37.0905 34.9773 38.0622 36.549 39.352 37.838C40.6417 39.127 42.2139 40.0979 43.9441 40.6738L51.809 43.2941C53.1497 43.7409 53.1497 45.6341 51.809 46.0809L43.94 48.7013C42.2102 49.278 40.6385 50.2498 39.3495 51.5395C38.0604 52.8292 37.0896 54.4014 36.5137 56.1316L33.8934 63.9966C33.7971 64.2901 33.6105 64.5458 33.3603 64.727C33.11 64.9082 32.809 65.0058 32.5 65.0058C32.191 65.0058 31.8899 64.9082 31.6397 64.727C31.3895 64.5458 31.2029 64.2901 31.1066 63.9966L28.4862 56.1275C27.9099 54.3981 26.9388 52.8267 25.6498 51.5377C24.3608 50.2487 22.7894 49.2776 21.06 48.7013L13.1909 46.0809C12.8974 45.9846 12.6417 45.798 12.4605 45.5478C12.2793 45.2975 12.1817 44.9965 12.1817 44.6875C12.1817 44.3785 12.2793 44.0775 12.4605 43.8272C12.6417 43.577 12.8974 43.3904 13.1909 43.2941L21.06 40.6738C22.7894 40.0974 24.3608 39.1263 25.6498 37.8373C26.9388 36.5483 27.9099 34.9769 28.4862 33.2475L31.1066 25.3784ZM15.4131 4.66375C15.4714 4.48782 15.5836 4.33472 15.7338 4.22621C15.8841 4.1177 16.0647 4.0593 16.25 4.0593C16.4353 4.0593 16.6159 4.1177 16.7662 4.22621C16.9164 4.33472 17.0286 4.48782 17.0869 4.66375L18.6591 9.38437C19.3619 11.4887 21.0112 13.1381 23.1156 13.8409L27.8362 15.4131C28.0122 15.4714 28.1653 15.5836 28.2738 15.7338C28.3823 15.8841 28.4407 16.0647 28.4407 16.25C28.4407 16.4353 28.3823 16.6159 28.2738 16.7662C28.1653 16.9164 28.0122 17.0286 27.8362 17.0869L23.1156 18.6591C22.0778 19.0048 21.1347 19.5876 20.3611 20.3611C19.5876 21.1347 19.0048 22.0778 18.6591 23.1156L17.0869 27.8363C17.0286 28.0122 16.9164 28.1653 16.7662 28.2738C16.6159 28.3823 16.4353 28.4407 16.25 28.4407C16.0647 28.4407 15.8841 28.3823 15.7338 28.2738C15.5836 28.1653 15.4714 28.0122 15.4131 27.8363L13.8409 23.1156C13.4951 22.0778 12.9124 21.1347 12.1388 20.3611C11.3653 19.5876 10.4222 19.0048 9.38437 18.6591L4.66374 17.0869C4.48781 17.0286 4.33472 16.9164 4.22621 16.7662C4.1177 16.6159 4.0593 16.4353 4.0593 16.25C4.0593 16.0647 4.1177 15.8841 4.22621 15.7338C4.33472 15.5836 4.48781 15.4714 4.66374 15.4131L9.38437 13.8409C10.4222 13.4952 11.3653 12.9124 12.1388 12.1389C12.9124 11.3653 13.4951 10.4222 13.8409 9.38437L15.4131 4.66375ZM44.1309 0.402185C44.171 0.286511 44.2462 0.186206 44.3459 0.115217C44.4457 0.0442271 44.5651 0.00608063 44.6875 0.00608063C44.8099 0.00608063 44.9293 0.0442271 45.029 0.115217C45.1288 0.186206 45.2039 0.286511 45.244 0.402185L46.2922 3.54656C46.7594 4.95219 47.8603 6.05312 49.2659 6.52031L52.4103 7.56844C52.526 7.60854 52.6263 7.68369 52.6973 7.78344C52.7683 7.88318 52.8064 8.00257 52.8064 8.125C52.8064 8.24743 52.7683 8.36681 52.6973 8.46656C52.6263 8.56631 52.526 8.64146 52.4103 8.68156L49.2659 9.72969C48.5732 9.96012 47.9438 10.3489 47.4276 10.8651C46.9114 11.3813 46.5226 12.0107 46.2922 12.7034L45.244 15.8478C45.2039 15.9635 45.1288 16.0638 45.029 16.1348C44.9293 16.2058 44.8099 16.2439 44.6875 16.2439C44.5651 16.2439 44.4457 16.2058 44.3459 16.1348C44.2462 16.0638 44.171 15.9635 44.1309 15.8478L43.0828 12.7034C42.8524 12.0107 42.4636 11.3813 41.9474 10.8651C41.4312 10.3489 40.8018 9.96012 40.1091 9.72969L36.9687 8.68156C36.8531 8.64146 36.7528 8.56631 36.6818 8.46656C36.6108 8.36681 36.5726 8.24743 36.5726 8.125C36.5726 8.00257 36.6108 7.88318 36.6818 7.78344C36.7528 7.68369 36.8531 7.60854 36.9687 7.56844L40.1131 6.52031C41.5187 6.05312 42.6197 4.95219 43.0869 3.54656L44.1309 0.406248V0.402185Z" fill="#5746AF"/>
</g>
<path d="M47.892 22.4545L51.4077 33.5057H51.5426L55.0653 22.4545H58.4744L53.4602 37H49.4972L44.4759 22.4545H47.892ZM62.0682 37.206C61.3722 37.206 60.7519 37.0852 60.2074 36.8438C59.6629 36.5975 59.232 36.2353 58.9148 35.7571C58.6023 35.2741 58.446 34.6728 58.446 33.9531C58.446 33.3471 58.5573 32.8381 58.7798 32.4261C59.0024 32.0142 59.3054 31.6828 59.6889 31.4318C60.0724 31.1809 60.508 30.9915 60.9957 30.8636C61.4882 30.7358 62.0043 30.6458 62.544 30.5938C63.1785 30.5275 63.6899 30.4659 64.0781 30.4091C64.4664 30.3475 64.7481 30.2576 64.9233 30.1392C65.0985 30.0208 65.1861 29.8456 65.1861 29.6136V29.571C65.1861 29.1212 65.044 28.7732 64.7599 28.527C64.4806 28.2808 64.0829 28.1577 63.5668 28.1577C63.0223 28.1577 62.589 28.2784 62.267 28.5199C61.9451 28.7566 61.732 29.0549 61.6278 29.4148L58.8295 29.1875C58.9716 28.5246 59.2509 27.9517 59.6676 27.4688C60.0843 26.9811 60.6217 26.607 61.2798 26.3466C61.9427 26.0814 62.7098 25.9489 63.581 25.9489C64.187 25.9489 64.767 26.0199 65.321 26.1619C65.8797 26.304 66.3745 26.5241 66.8054 26.8224C67.241 27.1207 67.5843 27.5043 67.8352 27.973C68.0862 28.437 68.2116 28.9934 68.2116 29.642V37H65.3423V35.4872H65.2571C65.0819 35.8281 64.8475 36.1288 64.554 36.3892C64.2604 36.6449 63.9077 36.8461 63.4957 36.9929C63.0838 37.1349 62.608 37.206 62.0682 37.206ZM62.9347 35.1179C63.3797 35.1179 63.7727 35.0303 64.1136 34.8551C64.4545 34.6752 64.7221 34.4337 64.9162 34.1307C65.1103 33.8277 65.2074 33.4844 65.2074 33.1009V31.9432C65.1127 32.0047 64.9825 32.0616 64.8168 32.1136C64.6558 32.161 64.4735 32.206 64.2699 32.2486C64.0663 32.2865 63.8627 32.322 63.6591 32.3551C63.4555 32.3835 63.2708 32.4096 63.1051 32.4332C62.75 32.4853 62.4399 32.5682 62.1747 32.6818C61.9096 32.7955 61.7036 32.9493 61.5568 33.1435C61.41 33.3329 61.3366 33.5696 61.3366 33.8537C61.3366 34.2656 61.4858 34.5805 61.7841 34.7983C62.0871 35.0114 62.4706 35.1179 62.9347 35.1179ZM73.5845 22.4545V37H70.5589V22.4545H73.5845ZM86.1786 26.0909L82.3647 37H78.9556L75.1417 26.0909H78.3377L80.6033 33.8963H80.717L82.9755 26.0909H86.1786ZM92.3469 37.2131C91.2248 37.2131 90.2589 36.9858 89.4492 36.5312C88.6443 36.072 88.024 35.4233 87.5884 34.5852C87.1528 33.7424 86.935 32.7457 86.935 31.5952C86.935 30.473 87.1528 29.4882 87.5884 28.6406C88.024 27.7931 88.6372 27.1326 89.4279 26.6591C90.2234 26.1856 91.1561 25.9489 92.2262 25.9489C92.9459 25.9489 93.6159 26.0649 94.2362 26.2969C94.8612 26.5241 95.4057 26.8674 95.8697 27.3267C96.3384 27.786 96.703 28.3636 96.9634 29.0597C97.2238 29.7509 97.354 30.5606 97.354 31.4886V32.3196H88.1424V30.4446H94.506C94.506 30.009 94.4113 29.6231 94.2219 29.2869C94.0326 28.9508 93.7698 28.688 93.4336 28.4986C93.1022 28.3045 92.7163 28.2074 92.2759 28.2074C91.8166 28.2074 91.4094 28.3139 91.0543 28.527C90.704 28.7353 90.4293 29.017 90.2305 29.3722C90.0316 29.7225 89.9298 30.1132 89.9251 30.544V32.3267C89.9251 32.8665 90.0245 33.3329 90.2234 33.7259C90.427 34.1188 90.7134 34.4219 91.0827 34.6349C91.4521 34.848 91.89 34.9545 92.3967 34.9545C92.7328 34.9545 93.0406 34.9072 93.32 34.8125C93.5993 34.7178 93.8384 34.5758 94.0373 34.3864C94.2362 34.197 94.3877 33.965 94.4918 33.6903L97.2901 33.875C97.1481 34.5473 96.8569 35.1345 96.4165 35.6364C95.9809 36.1335 95.4175 36.5218 94.7262 36.8011C94.0397 37.0758 93.2466 37.2131 92.3469 37.2131ZM99.3285 37V26.0909H102.262V27.9943H102.375C102.574 27.3172 102.908 26.8059 103.377 26.4602C103.846 26.1098 104.385 25.9347 104.996 25.9347C105.148 25.9347 105.311 25.9441 105.486 25.9631C105.661 25.982 105.815 26.008 105.948 26.0412V28.7259C105.806 28.6832 105.609 28.6454 105.358 28.6122C105.107 28.5791 104.878 28.5625 104.669 28.5625C104.224 28.5625 103.827 28.6596 103.476 28.8537C103.131 29.0431 102.856 29.3082 102.652 29.6491C102.453 29.9901 102.354 30.383 102.354 30.8281V37H99.3285ZM111.024 37.1776C110.196 37.1776 109.445 36.9645 108.773 36.5384C108.105 36.1075 107.575 35.4754 107.182 34.642C106.794 33.804 106.599 32.7765 106.599 31.5597C106.599 30.3097 106.801 29.2704 107.203 28.4418C107.606 27.6084 108.141 26.9858 108.808 26.5739C109.481 26.1572 110.217 25.9489 111.017 25.9489C111.628 25.9489 112.137 26.053 112.544 26.2614C112.956 26.465 113.287 26.7206 113.538 27.0284C113.794 27.3314 113.988 27.6297 114.121 27.9233H114.213V22.4545H117.232V37H114.249V35.2528H114.121C113.979 35.5559 113.777 35.8565 113.517 36.1548C113.261 36.4484 112.928 36.6922 112.516 36.8864C112.108 37.0805 111.611 37.1776 111.024 37.1776ZM111.983 34.7699C112.471 34.7699 112.883 34.6373 113.219 34.3722C113.56 34.1023 113.82 33.7259 114 33.2429C114.185 32.7599 114.277 32.1941 114.277 31.5455C114.277 30.8968 114.187 30.3333 114.007 29.8551C113.827 29.3769 113.567 29.0076 113.226 28.7472C112.885 28.4867 112.471 28.3565 111.983 28.3565C111.486 28.3565 111.067 28.4915 110.726 28.7614C110.385 29.0312 110.127 29.4053 109.952 29.8835C109.777 30.3617 109.689 30.9157 109.689 31.5455C109.689 32.1799 109.777 32.741 109.952 33.2287C110.132 33.7116 110.39 34.0904 110.726 34.3651C111.067 34.6349 111.486 34.7699 111.983 34.7699ZM124.691 37.2131C123.569 37.2131 122.603 36.9858 121.793 36.5312C120.988 36.072 120.368 35.4233 119.932 34.5852C119.497 33.7424 119.279 32.7457 119.279 31.5952C119.279 30.473 119.497 29.4882 119.932 28.6406C120.368 27.7931 120.981 27.1326 121.772 26.6591C122.567 26.1856 123.5 25.9489 124.57 25.9489C125.29 25.9489 125.96 26.0649 126.58 26.2969C127.205 26.5241 127.749 26.8674 128.213 27.3267C128.682 27.786 129.047 28.3636 129.307 29.0597C129.568 29.7509 129.698 30.5606 129.698 31.4886V32.3196H120.486V30.4446H126.85C126.85 30.009 126.755 29.6231 126.566 29.2869C126.376 28.9508 126.114 28.688 125.777 28.4986C125.446 28.3045 125.06 28.2074 124.62 28.2074C124.16 28.2074 123.753 28.3139 123.398 28.527C123.048 28.7353 122.773 29.017 122.574 29.3722C122.375 29.7225 122.274 30.1132 122.269 30.544V32.3267C122.269 32.8665 122.368 33.3329 122.567 33.7259C122.771 34.1188 123.057 34.4219 123.426 34.6349C123.796 34.848 124.234 34.9545 124.74 34.9545C125.077 34.9545 125.384 34.9072 125.664 34.8125C125.943 34.7178 126.182 34.5758 126.381 34.3864C126.58 34.197 126.731 33.965 126.836 33.6903L129.634 33.875C129.492 34.5473 129.201 35.1345 128.76 35.6364C128.325 36.1335 127.761 36.5218 127.07 36.8011C126.383 37.0758 125.59 37.2131 124.691 37.2131Z" fill="#5746AF"/>
</g>
<defs>
<clipPath id="clip0_1_2">
<rect width="131" height="65" fill="white"/>
</clipPath>
<clipPath id="clip1_1_2">
<rect width="65" height="65" fill="white"/>
</clipPath>
</defs>
</svg>
